<?xml version="1.0" encoding="iso-8859-1"?>
<!-- Generator: Adobe Illustrator 19.0.0, SVG Export Plug-In . SVG Version: 6.00 Build 0)  -->
<svg version="1.1" id="Capa_1" xmlns="http://www.w3.org/2000/svg" xmlns:xlink="http://www.w3.org/1999/xlink" x="0px" y="0px"
	 viewBox="0 0 512 512" style="enable-background:new 0 0 512 512;" xml:space="preserve">
<circle style="fill:#005C83;" cx="256" cy="256" r="256"/>
<path style="fill:#00263F;" d="M512,256c0-6.444-0.244-12.831-0.712-19.156L399.906,125.462l-37.156,28.479L289,110.947h-74.688
	L188.605,85.24l-32.717,64.856L267.633,261.84L122.938,402.43l108.381,108.381C239.443,511.588,247.673,512,256,512
	C397.385,512,512,397.385,512,256z"/>
<path style="fill:#FFFFFF;" d="M256,101.289c-26.428,0-51.882,6.577-74.625,19.15l7.229-35.2l-18.611-3.822l-14.105,68.678
	l68.704,14.111l3.822-18.611l-38.842-7.978c20.19-11.378,42.868-17.329,66.428-17.329c39.038,0,76.216,16.836,102.001,46.191
	l14.275-12.539C342.884,120.479,300.503,101.289,256,101.289z"/>
<g>
	<path style="fill:#E0E0E0;" d="M373.988,188.894c-4.541-7.966-9.92-15.507-15.986-22.413l14.273-12.54
		c6.913,7.87,13.043,16.463,18.219,25.543L373.988,188.894z"/>
	<path style="fill:#E0E0E0;" d="M256.001,410.711c-14.407,0-28.676-1.98-42.409-5.887l5.197-18.275
		c12.043,3.425,24.563,5.162,37.211,5.162c4.791,0,9.62-0.252,14.352-0.75l1.984,18.896
		C266.947,410.424,261.452,410.711,256.001,410.711z M303.763,403.195l-5.861-18.073c16.584-5.377,31.802-13.813,45.231-25.072
		l12.207,14.56C340.031,387.444,322.678,397.062,303.763,403.195z M377.686,351.552l-14.936-11.743
		c10.831-13.775,18.78-29.252,23.628-46l18.25,5.282C399.099,318.197,390.034,335.847,377.686,351.552z M410.292,267.473
		l-18.949-1.389c0.244-3.334,0.368-6.727,0.368-10.084c0-14.107-2.152-28.006-6.398-41.31l18.102-5.776
		c4.842,15.173,7.297,31.016,7.297,47.086C410.711,259.818,410.57,263.678,410.292,267.473z"/>
</g>
<path style="fill:#FFFFFF;" d="M183.68,392.801c-9.236-4.893-18.016-10.754-26.095-17.421l12.094-14.654
	c7.089,5.851,14.792,10.994,22.896,15.286L183.68,392.801z"/>
<path style="fill:#FF6838;" d="M227.676,336.188l-38.495-38.496l187.806-172.71c6.534-6.008,16.642-5.797,22.919,0.48l0,0
	c6.276,6.276,6.488,16.385,0.48,22.919L227.676,336.188z"/>
<path style="fill:#AE4E32;" d="M208.744,317.256l18.932,18.932l172.71-187.807c5.906-6.423,5.788-16.292-0.179-22.588
	L208.744,317.256z"/>
<path style="fill:#FFDC00;" d="M155.185,283.194c24.022-24.022,62.968-24.022,86.99,0c24.021,24.022,24.021,62.968,0,86.99
	c-24.022,24.022-119.236,32.246-119.236,32.246S131.163,307.216,155.185,283.194z"/>
<path style="fill:#FFC000;" d="M122.938,402.43c8.601-0.794,96.408-9.418,119.236-32.246c23.916-23.916,24.013-62.62,0.308-86.667
	L122.938,402.43z"/>
<g>
</g>
<g>
</g>
<g>
</g>
<g>
</g>
<g>
</g>
<g>
</g>
<g>
</g>
<g>
</g>
<g>
</g>
<g>
</g>
<g>
</g>
<g>
</g>
<g>
</g>
<g>
</g>
<g>
</g>
</svg>
