<?xml version="1.0" encoding="iso-8859-1"?>
<!-- Generator: Adobe Illustrator 19.0.0, SVG Export Plug-In . SVG Version: 6.00 Build 0)  -->
<svg version="1.1" id="Capa_1" xmlns="http://www.w3.org/2000/svg" xmlns:xlink="http://www.w3.org/1999/xlink" x="0px" y="0px"
	 viewBox="0 0 512 512" style="enable-background:new 0 0 512 512;" xml:space="preserve">
<circle style="fill:#590F38;" cx="256" cy="256" r="256"/>
<path style="fill:#3A082A;" d="M485.652,369.208L215.444,99L116,397.333l113.283,113.283C238.065,511.527,246.977,512,256,512
	C356.738,512,443.869,453.805,485.652,369.208z"/>
<polygon style="fill:#FFB344;" points="314.889,297.889 314.889,198.444 215.444,198.444 215.444,99 116,99 116,198.444 
	116,297.889 116,397.333 215.444,397.333 314.889,397.333 414.333,397.333 414.333,297.889 "/>
<rect x="116" y="297.89" style="fill:#FF6838;" width="99.44" height="99.44"/>
<rect x="116" y="198.44" style="fill:#FF9451;" width="99.44" height="99.44"/>
<rect x="116" y="99" style="fill:#FFB344;" width="99.44" height="99.44"/>
<rect x="215.44" y="297.89" style="fill:#F7674F;" width="99.44" height="99.44"/>
<rect x="215.44" y="198.44" style="fill:#FFB344;" width="99.44" height="99.44"/>
<polygon style="fill:#AE4E32;" points="215.444,297.889 215.444,397.333 116,397.333 "/>
<g>
	<polygon style="fill:#FF9451;" points="314.889,198.444 314.889,297.889 215.444,297.889 	"/>
	<rect x="314.89" y="297.89" style="fill:#FF9451;" width="99.44" height="99.44"/>
</g>
<g>
</g>
<g>
</g>
<g>
</g>
<g>
</g>
<g>
</g>
<g>
</g>
<g>
</g>
<g>
</g>
<g>
</g>
<g>
</g>
<g>
</g>
<g>
</g>
<g>
</g>
<g>
</g>
<g>
</g>
</svg>
