<svg xmlns="http://www.w3.org/2000/svg" viewBox="0 0 250.14 63.81">
    <defs/>
    <title>Asset 2</title>
    <g id="Layer_2" data-name="Layer 2">
        <g id="page_header" data-name="page header">
            <path class="cls-2"
                  d="M68.93,17.78A8.59,8.59,0,0,0,73.4,18.9a7.9,7.9,0,0,0,2.75-.43,4.39,4.39,0,0,0,1.93-1.39l.14,1.42h2.95V9.09h-8.1v3.17h4.6v.07a3,3,0,0,1-1,2.41,5.1,5.1,0,0,1-6.35-.51,5.78,5.78,0,0,1-1.27-4,5.44,5.44,0,0,1,1.31-3.94,4.6,4.6,0,0,1,3.46-1.35,5.93,5.93,0,0,1,2.41.49,11.19,11.19,0,0,1,2.58,1.72l2.45-2.47a11.55,11.55,0,0,0-3.49-2.38,10.39,10.39,0,0,0-3.94-.7,9.32,9.32,0,0,0-4.66,1.12,7.54,7.54,0,0,0-3,3.09,9.33,9.33,0,0,0-1,4.44,9.81,9.81,0,0,0,1,4.49A7.39,7.39,0,0,0,68.93,17.78Z"/>
            <path class="cls-2"
                  d="M87.93,18.9a4,4,0,0,0,3.62-1.68V18.5h3.28V6.38h-3.6v7.15a2.32,2.32,0,0,1-.59,1.74,2.29,2.29,0,0,1-1.67.57A1.63,1.63,0,0,1,87.14,14V6.38h-3.6v8.55a3.86,3.86,0,0,0,1.08,2.92A4.62,4.62,0,0,0,87.93,18.9Z"/>
            <path class="cls-2"
                  d="M99.31,18.09a5.28,5.28,0,0,0,2.84.78A4.5,4.5,0,0,0,106.06,17V18.5h3.33V6.38h-3.6v1.1A4.61,4.61,0,0,0,102.17,6a5.32,5.32,0,0,0-2.86.78,5.26,5.26,0,0,0-2,2.24,7.73,7.73,0,0,0-.71,3.41,7.67,7.67,0,0,0,.71,3.39A5.26,5.26,0,0,0,99.31,18.09ZM101,10A2.58,2.58,0,0,1,103.11,9a2.54,2.54,0,0,1,2,.93,3.69,3.69,0,0,1,.8,2.49,3.78,3.78,0,0,1-.79,2.49,2.69,2.69,0,0,1-4.1,0,3.85,3.85,0,0,1-.77-2.5A3.73,3.73,0,0,1,101,10Z"/>
            <path class="cls-2"
                  d="M115.1,8.11V6.38h-3.33V18.5h3.6V12.77a3.92,3.92,0,0,1,.7-2.46,2.27,2.27,0,0,1,1.89-.9,7.75,7.75,0,0,1,1.63.26l.67-3.08a7.1,7.1,0,0,0-2-.42A3.3,3.3,0,0,0,115.1,8.11Z"/>
            <path class="cls-2"
                  d="M129.63,7.48A4.61,4.61,0,0,0,126,6a5.32,5.32,0,0,0-2.87.78,5.26,5.26,0,0,0-2,2.24,7.73,7.73,0,0,0-.71,3.41,7.68,7.68,0,0,0,.71,3.39,5.17,5.17,0,0,0,4.81,3A4.5,4.5,0,0,0,129.89,17V18.5h3.33V6.38h-3.6ZM129,15a2.69,2.69,0,0,1-4.1,0,3.85,3.85,0,0,1-.77-2.5,3.72,3.72,0,0,1,.79-2.49A2.58,2.58,0,0,1,126.94,9a2.54,2.54,0,0,1,2,.93,3.69,3.69,0,0,1,.8,2.49A3.78,3.78,0,0,1,129,15Z"/>
            <path class="cls-2"
                  d="M142.62,6a4.86,4.86,0,0,0-2.17.47,4.06,4.06,0,0,0-1.52,1.26V6.38H135.6V18.5h3.6V11.25a2.25,2.25,0,0,1,.6-1.65A2.16,2.16,0,0,1,141.4,9a2,2,0,0,1,1.55.57,2.27,2.27,0,0,1,.54,1.62V18.5h3.6V10.2a4.13,4.13,0,0,0-1.17-3.09A4.49,4.49,0,0,0,142.62,6Z"/>
            <path class="cls-2"
                  d="M155.18,15.75a1.4,1.4,0,0,1-.88-.23,1,1,0,0,1-.3-.86V9h2.81V6.38H154V2.84h-3.6V6.38h-2.18V9h2.18v6.29a3.6,3.6,0,0,0,.86,2.68,4,4,0,0,0,2.88.84,10.34,10.34,0,0,0,2.85-.44l-.41-2.8A7.26,7.26,0,0,1,155.18,15.75Z"/>
            <path class="cls-2"
                  d="M170.07,12.09a6.29,6.29,0,0,0-1.53-4.51A5.79,5.79,0,0,0,164.13,6a6.64,6.64,0,0,0-3.42.85,5.61,5.61,0,0,0-2.21,2.33,7.25,7.25,0,0,0-.76,3.34,6.76,6.76,0,0,0,.82,3.38,5.58,5.58,0,0,0,2.33,2.24,7.54,7.54,0,0,0,3.55.79,8.07,8.07,0,0,0,2.94-.52,8.49,8.49,0,0,0,2.7-1.78l-2-2.19a8.77,8.77,0,0,1-1.8,1.19,4.24,4.24,0,0,1-1.77.35,3.45,3.45,0,0,1-2.21-.66,3.12,3.12,0,0,1-1.1-1.83H170Q170.07,12.93,170.07,12.09ZM161.3,11a3.27,3.27,0,0,1,1-1.68,2.61,2.61,0,0,1,1.82-.63,2.53,2.53,0,0,1,1.8.61,2.63,2.63,0,0,1,.77,1.7Z"/>
            <path class="cls-2"
                  d="M183.76,12.09a6.29,6.29,0,0,0-1.53-4.51A5.79,5.79,0,0,0,177.82,6a6.64,6.64,0,0,0-3.42.85,5.61,5.61,0,0,0-2.21,2.33,7.25,7.25,0,0,0-.76,3.34,6.76,6.76,0,0,0,.82,3.38,5.58,5.58,0,0,0,2.33,2.24,7.54,7.54,0,0,0,3.55.79,8.07,8.07,0,0,0,2.94-.52,8.49,8.49,0,0,0,2.7-1.78l-2-2.19a8.77,8.77,0,0,1-1.8,1.19,4.24,4.24,0,0,1-1.77.35,3.45,3.45,0,0,1-2.21-.66,3.12,3.12,0,0,1-1.1-1.83h8.8Q183.76,12.93,183.76,12.09ZM175,11a3.27,3.27,0,0,1,1-1.68,2.61,2.61,0,0,1,1.82-.63,2.53,2.53,0,0,1,1.8.61,2.63,2.63,0,0,1,.77,1.7Z"/>
            <path class="cls-2"
                  d="M194.34,2V7.48A4.61,4.61,0,0,0,190.72,6a5.32,5.32,0,0,0-2.87.78,5.26,5.26,0,0,0-2,2.24,7.73,7.73,0,0,0-.71,3.41,7.67,7.67,0,0,0,.71,3.39,5.17,5.17,0,0,0,4.81,3A4.5,4.5,0,0,0,194.6,17V18.5h3.33V2Zm-.67,13a2.69,2.69,0,0,1-4.1,0,3.85,3.85,0,0,1-.77-2.5,3.73,3.73,0,0,1,.79-2.49A2.58,2.58,0,0,1,191.65,9a2.54,2.54,0,0,1,2,.93,3.69,3.69,0,0,1,.8,2.49A3.78,3.78,0,0,1,193.67,15Z"/>
            <path class="cls-2" d="M65.06,10.2"/>
            <path class="cls-2"
                  d="M74.89,37.77H68.07l-1.39,3.77h-2l5.51-14.8h2.6l5.54,14.8h-2Zm-.58-1.63-.71-1.94Q72,30,71.46,28.18q-.34,1.13-.89,2.66T69.81,33l-.45,1.23-.71,1.92Z"/>
            <path class="cls-2" d="M81.91,41.54H80.06V26.74h1.85Z"/>
            <path class="cls-2" d="M86.65,41.54H84.8V26.74h1.85Z"/>
            <path class="cls-2"
                  d="M100.06,41.38a6.49,6.49,0,0,1-2.17.35,2.84,2.84,0,0,1-2.09-.65,2.63,2.63,0,0,1-.63-1.92V32.64h-2V31.29h2V27.85H97v3.44h2.85v1.36H97V39a1.32,1.32,0,0,0,.29,1,1.34,1.34,0,0,0,1,.28A6.26,6.26,0,0,0,99.78,40Z"/>
            <path class="cls-2"
                  d="M108.67,31.68a4.81,4.81,0,0,1,1.86,1.92,6.29,6.29,0,0,1,0,5.63,4.81,4.81,0,0,1-1.86,1.92,5.33,5.33,0,0,1-2.71.69,5.27,5.27,0,0,1-2.7-.69,4.83,4.83,0,0,1-1.84-1.92,6.29,6.29,0,0,1,0-5.63,4.83,4.83,0,0,1,1.84-1.92A5.27,5.27,0,0,1,106,31,5.33,5.33,0,0,1,108.67,31.68Zm-5.14,1.9a4.29,4.29,0,0,0-.9,2.84,4.29,4.29,0,0,0,.9,2.84A3,3,0,0,0,106,40.33a3,3,0,0,0,2.44-1.08,4.26,4.26,0,0,0,.91-2.84,4.26,4.26,0,0,0-.91-2.84A3,3,0,0,0,106,32.49,3,3,0,0,0,103.54,33.58Z"/>
            <path class="cls-2"
                  d="M122.7,31.29v10a3.92,3.92,0,0,1-1.3,3.13,5.14,5.14,0,0,1-3.49,1.13A8.27,8.27,0,0,1,113.13,44l.92-1.31a12.66,12.66,0,0,0,2,1,5.26,5.26,0,0,0,1.87.32,3.23,3.23,0,0,0,2.16-.7,2.7,2.7,0,0,0,.83-2.18V39.75a3.75,3.75,0,0,1-3.37,1.67,4.38,4.38,0,0,1-2.4-.67,4.52,4.52,0,0,1-1.64-1.86,6.42,6.42,0,0,1,0-5.38,4.53,4.53,0,0,1,1.64-1.86,4.39,4.39,0,0,1,2.4-.67A3.77,3.77,0,0,1,121,32.79v-1.5Zm-2.64,7.58a4.55,4.55,0,0,0,0-5.32,2.79,2.79,0,0,0-2.25-1,2.7,2.7,0,0,0-2.23,1,4.15,4.15,0,0,0-.82,2.67,4.15,4.15,0,0,0,.82,2.67,2.7,2.7,0,0,0,2.23,1A2.79,2.79,0,0,0,120.06,38.86Z"/>
            <path class="cls-2"
                  d="M134.65,39.71a7.47,7.47,0,0,1-2.2,1.65,5.81,5.81,0,0,1-2.41.48,5.53,5.53,0,0,1-2.77-.67,4.51,4.51,0,0,1-1.81-1.88,6,6,0,0,1-.63-2.81,6.26,6.26,0,0,1,.62-2.85,4.69,4.69,0,0,1,1.76-1.94,5,5,0,0,1,2.66-.7,4.6,4.6,0,0,1,3.51,1.32,5,5,0,0,1,1.26,3.62,7,7,0,0,1,0,.79h-7.94a4.26,4.26,0,0,0,.94,2.59,3,3,0,0,0,2.47,1,3.71,3.71,0,0,0,1.72-.38,8.89,8.89,0,0,0,1.78-1.33Zm-6.91-6.51a3.66,3.66,0,0,0-1,2.19h6.09a3.21,3.21,0,0,0-.84-2.16,2.81,2.81,0,0,0-2.12-.8A2.94,2.94,0,0,0,127.74,33.2Z"/>
            <path class="cls-2"
                  d="M142.52,41.38a6.49,6.49,0,0,1-2.17.35,2.84,2.84,0,0,1-2.09-.65,2.63,2.63,0,0,1-.63-1.92V32.64h-2V31.29h2V27.85h1.85v3.44h2.85v1.36h-2.85V39a1.32,1.32,0,0,0,.29,1,1.34,1.34,0,0,0,1,.28,6.26,6.26,0,0,0,1.52-.25Z"/>
            <path class="cls-2"
                  d="M152.1,32a3.47,3.47,0,0,1,1,2.52v7h-1.85V35.08a2.67,2.67,0,0,0-.62-1.91,2.37,2.37,0,0,0-1.8-.66,2.69,2.69,0,0,0-1.93.76,2.53,2.53,0,0,0-.79,1.91v6.36h-1.85V26.74h1.85v5.71a3.17,3.17,0,0,1,1.35-1.09A4.63,4.63,0,0,1,149.3,31,3.73,3.73,0,0,1,152.1,32Z"/>
            <path class="cls-2"
                  d="M165,39.71a7.47,7.47,0,0,1-2.2,1.65,5.81,5.81,0,0,1-2.41.48,5.53,5.53,0,0,1-2.77-.67,4.51,4.51,0,0,1-1.81-1.88,6,6,0,0,1-.63-2.81,6.26,6.26,0,0,1,.62-2.85,4.69,4.69,0,0,1,1.76-1.94,5,5,0,0,1,2.66-.7,4.6,4.6,0,0,1,3.51,1.32A5,5,0,0,1,165,35.93a7,7,0,0,1,0,.79H157a4.26,4.26,0,0,0,.94,2.59,3,3,0,0,0,2.47,1,3.71,3.71,0,0,0,1.72-.38,8.89,8.89,0,0,0,1.78-1.33ZM158.1,33.2a3.66,3.66,0,0,0-1,2.19h6.09a3.21,3.21,0,0,0-.84-2.16,2.81,2.81,0,0,0-2.12-.8A2.94,2.94,0,0,0,158.1,33.2Z"/>
            <path class="cls-2"
                  d="M173.2,31.47l-.34,1.5a5.35,5.35,0,0,0-1.37-.21,2.16,2.16,0,0,0-1.78.88A3.79,3.79,0,0,0,169,36v5.5h-1.85V31.29h1.74v1.56a2.93,2.93,0,0,1,1-1.22,2.79,2.79,0,0,1,1.58-.45A5.46,5.46,0,0,1,173.2,31.47Z"/>
            <path class="cls-2"
                  d="M187.27,31.69a4.54,4.54,0,0,1,1.65,1.9,6.42,6.42,0,0,1,.59,2.82,6.32,6.32,0,0,1-.6,2.83,4.61,4.61,0,0,1-1.66,1.9,4.36,4.36,0,0,1-2.39.68,3.9,3.9,0,0,1-3.6-1.83v1.56h-1.74V26.74h1.85v6a4,4,0,0,1,3.5-1.71A4.39,4.39,0,0,1,187.27,31.69Zm-.48,7.52a4.39,4.39,0,0,0,.84-2.79,4.42,4.42,0,0,0-.84-2.81,2.67,2.67,0,0,0-2.21-1.06,3,3,0,0,0-2.37,1,4.16,4.16,0,0,0-.91,2.84,4.11,4.11,0,0,0,.91,2.83,3,3,0,0,0,2.37,1A2.67,2.67,0,0,0,186.78,39.21Z"/>
            <path class="cls-2"
                  d="M201,39.71a7.47,7.47,0,0,1-2.2,1.65,5.81,5.81,0,0,1-2.41.48,5.53,5.53,0,0,1-2.77-.67,4.51,4.51,0,0,1-1.81-1.88,6,6,0,0,1-.63-2.81,6.26,6.26,0,0,1,.62-2.85,4.69,4.69,0,0,1,1.76-1.94,5,5,0,0,1,2.66-.7,4.6,4.6,0,0,1,3.51,1.32A5,5,0,0,1,201,35.93a7,7,0,0,1,0,.79H193a4.26,4.26,0,0,0,.94,2.59,3,3,0,0,0,2.47,1,3.71,3.71,0,0,0,1.72-.38,8.89,8.89,0,0,0,1.78-1.33Zm-6.91-6.51a3.66,3.66,0,0,0-1,2.19h6.09a3.21,3.21,0,0,0-.84-2.16,2.81,2.81,0,0,0-2.12-.8A2.94,2.94,0,0,0,194.08,33.2Z"/>
            <path class="cls-2"
                  d="M208.86,41.38a6.49,6.49,0,0,1-2.17.35,2.84,2.84,0,0,1-2.09-.65,2.63,2.63,0,0,1-.63-1.92V32.64h-2V31.29h2V27.85h1.85v3.44h2.85v1.36h-2.85V39a1.32,1.32,0,0,0,.29,1,1.34,1.34,0,0,0,1,.28,6.26,6.26,0,0,0,1.52-.25Z"/>
            <path class="cls-2"
                  d="M216.43,41.38a6.49,6.49,0,0,1-2.17.35,2.84,2.84,0,0,1-2.09-.65,2.63,2.63,0,0,1-.63-1.92V32.64h-2V31.29h2V27.85h1.85v3.44h2.85v1.36h-2.85V39a1.32,1.32,0,0,0,.29,1,1.34,1.34,0,0,0,1,.28,6.26,6.26,0,0,0,1.52-.25Z"/>
            <path class="cls-2"
                  d="M226.95,39.71a7.47,7.47,0,0,1-2.2,1.65,5.81,5.81,0,0,1-2.41.48,5.53,5.53,0,0,1-2.77-.67,4.51,4.51,0,0,1-1.81-1.88,6,6,0,0,1-.63-2.81,6.26,6.26,0,0,1,.62-2.85,4.69,4.69,0,0,1,1.76-1.94,5,5,0,0,1,2.66-.7,4.6,4.6,0,0,1,3.51,1.32,5,5,0,0,1,1.26,3.62,7,7,0,0,1,0,.79h-7.94a4.26,4.26,0,0,0,.94,2.59,3,3,0,0,0,2.47,1,3.71,3.71,0,0,0,1.72-.38,8.89,8.89,0,0,0,1.78-1.33ZM220,33.2a3.66,3.66,0,0,0-1,2.19h6.09a3.21,3.21,0,0,0-.84-2.16,2.81,2.81,0,0,0-2.12-.8A2.94,2.94,0,0,0,220,33.2Z"/>
            <path class="cls-2"
                  d="M235.14,31.47,234.8,33a5.35,5.35,0,0,0-1.37-.21,2.16,2.16,0,0,0-1.78.88A3.79,3.79,0,0,0,231,36v5.5h-1.85V31.29h1.74v1.56a2.93,2.93,0,0,1,1-1.22,2.79,2.79,0,0,1,1.58-.45A5.46,5.46,0,0,1,235.14,31.47Z"/>
            <path class="cls-2"
                  d="M10.6,26.09a15.22,15.22,0,0,0,7,3.87H33.91V55.1H17.57V30C5.83,30,0,35.58,0,44.07,0,56,12.31,63.81,25.82,63.81S53.68,53.51,53.68,34V0H22C8,0,.68,16.52,10.6,26.09ZM35.8,15.74a9.92,9.92,0,0,1-10.06,9.77,9.92,9.92,0,0,1-10.06-9.77A9.92,9.92,0,0,1,25.74,6,9.92,9.92,0,0,1,35.8,15.74Z"/>
            <rect class="cls-2" x="203.75" y="1.96" width="3.88" height="16.54"/>
            <path class="cls-2"
                  d="M213.87,8.11V6.38h-3.33V18.5h3.6V12.77a3.92,3.92,0,0,1,.7-2.46,2.27,2.27,0,0,1,1.89-.9,7.76,7.76,0,0,1,1.63.26L219,6.59a7.1,7.1,0,0,0-2-.42A3.3,3.3,0,0,0,213.87,8.11Z"/>
            <rect class="cls-2" x="220.27" y="6.38" width="3.6" height="12.12"/>
            <path class="cls-2"
                  d="M234.88,11.79a15.26,15.26,0,0,0-2.84-.86q-.91-.19-1.57-.35a2.81,2.81,0,0,1-.9-.34.58.58,0,0,1-.24-.5.78.78,0,0,1,.49-.7,2.9,2.9,0,0,1,1.33-.26,5.63,5.63,0,0,1,1.83.29,6.85,6.85,0,0,1,1.88,1.08l1.89-2.24a8.67,8.67,0,0,0-2.6-1.51A8.91,8.91,0,0,0,231.25,6a6.91,6.91,0,0,0-2.87.55A4.32,4.32,0,0,0,226.54,8a3.52,3.52,0,0,0-.64,2,3.12,3.12,0,0,0,.42,1.68,3.26,3.26,0,0,0,1.41,1.15,13.32,13.32,0,0,0,2.77.87l.74.16a9,9,0,0,1,1.68.44.72.72,0,0,1,.48.7.85.85,0,0,1-.53.77,2.86,2.86,0,0,1-1.34.28,5.65,5.65,0,0,1-2-.35,9.36,9.36,0,0,1-2.23-1.37l-2,2.21a9.48,9.48,0,0,0,2.95,1.81,9.53,9.53,0,0,0,3.24.52,7.56,7.56,0,0,0,3-.52,4.26,4.26,0,0,0,1.88-1.44,3.54,3.54,0,0,0,.65-2.09,3.25,3.25,0,0,0-.49-1.86A3.54,3.54,0,0,0,234.88,11.79Z"/>
            <path class="cls-2"
                  d="M245.69,6a4.42,4.42,0,0,0-3.43,1.42V2h-3.6V18.5h3.6V11.3a2.3,2.3,0,0,1,.61-1.68A2.12,2.12,0,0,1,244.46,9a2,2,0,0,1,1.55.58,2.35,2.35,0,0,1,.54,1.65V18.5h3.6V10.21A4.13,4.13,0,0,0,249,7.12,4.49,4.49,0,0,0,245.69,6Z"/>
            <ellipse class="cls-2" cx="222.07" cy="2.94" rx="1.98" ry="1.93"/>
        </g>
    </g>
</svg>